<svg width="81" height="58" viewBox="0 0 81 58" fill="none" xmlns="http://www.w3.org/2000/svg">
<mask id="mask0_1748_286" style="mask-type:luminance" maskUnits="userSpaceOnUse" x="0" y="0" width="81" height="58">
<path d="M0 57.6719H80.4334V-0.000968933H0V57.6719Z" fill="white"/>
</mask>
<g mask="url(#mask0_1748_286)">
<path fill-rule="evenodd" clip-rule="evenodd" d="M17.5938 10.959H46.9766V11.502H17.5938V10.959Z" fill="white"/>
<path fill-rule="evenodd" clip-rule="evenodd" d="M72.6037 48.7525C71.1777 49.4264 69.7924 50.1308 68.3169 50.7674C65.0054 52.1958 61.2612 53.1267 57.2465 53.6909C55.7609 53.8995 54.2193 53.991 52.6946 54.0949C51.4292 54.1814 50.153 54.2261 48.879 54.2529C48.0995 54.2695 47.3106 54.2426 46.5348 54.1926C45.0098 54.0937 43.4777 54.0038 41.9732 53.8387C40.3247 53.6582 38.6769 53.4475 37.0786 53.1594C34.4477 52.6851 31.9135 52.0774 29.5117 51.2823C27.0953 50.4823 24.7646 49.6196 22.6413 48.5849C20.0971 47.3448 17.7817 45.9813 15.7777 44.4458C12.751 42.1269 10.4599 39.6104 9.02154 36.8285C7.97953 34.8128 7.44646 32.7709 7.39768 30.6766C7.3298 27.8011 8.35982 25.0566 10.4735 22.4532C11.8341 20.7771 13.6643 19.2718 15.8799 17.9124C18.8554 16.0862 22.3734 14.7083 26.3725 13.734C29.2134 13.0415 32.1934 12.6116 35.2715 12.4052C38.2529 12.205 41.2255 12.1998 44.2041 12.4186C46.0779 12.5562 47.9133 12.7651 49.7422 13.0493C53.6385 13.6549 57.2982 14.548 60.7246 15.7587C61.004 15.8572 61.2634 15.9739 61.4772 16.1306C60.8061 15.948 60.1326 15.7675 59.4623 15.5828C56.7296 14.8295 53.8666 14.3095 50.9021 13.9306C47.8122 13.5355 44.6913 13.3845 41.5557 13.5109C37.5913 13.6704 33.7845 14.2247 30.1719 15.2101C27.2582 16.0048 24.6533 17.0367 22.366 18.3213C20.2033 19.5362 18.4054 20.9148 17.0093 22.4582C15.5069 24.1198 14.5138 25.8739 14.0003 27.7179C13.5477 29.3426 13.5401 30.9688 13.7871 32.6083C14.1447 34.9788 15.2883 37.2243 17.0118 39.37C18.9105 41.7334 21.4806 43.8514 24.6542 45.7289C28.1781 47.8138 32.2167 49.4913 36.8138 50.7235C40.5195 51.7165 44.4062 52.3548 48.4863 52.6242C53.0239 52.9227 57.4851 52.7092 61.84 51.9595C65.4301 51.3419 68.7272 50.3705 71.6322 48.9992C71.8969 48.8738 72.1717 48.7559 72.4415 48.6345C72.496 48.6739 72.55 48.7131 72.6037 48.7525Z" fill="white"/>
<path d="M17.1568 10.5229L17.1807 10.532C17.7402 10.7112 18.0971 10.7832 18.4065 10.7236C18.7156 10.6642 18.9196 10.4834 19.1757 10.1574V10.1569C19.2275 10.0905 19.2781 10.0206 19.328 9.9473C19.3789 9.87139 19.4331 9.789 19.4867 9.70084C19.6499 9.49249 19.7939 9.29658 19.9272 9.1151C20.2771 8.63812 20.5555 8.25876 20.7595 8.19427C21.1353 8.07571 21.948 7.9377 22.894 7.77709C23.5396 7.6676 24.2476 7.54715 24.9288 7.41407C25.6692 7.26916 25.874 7.10675 25.7191 6.92443C25.5983 6.78265 25.1899 6.65276 24.6345 6.51796C24.341 6.44682 23.8241 6.45945 23.267 6.50704C22.7339 6.55263 22.152 6.63041 21.7055 6.69475C21.498 6.7244 21.4316 6.73277 21.4308 6.73106C21.4199 6.70591 21.4319 6.64823 21.4471 6.57604C21.4531 6.54828 21.4595 6.51689 21.4675 6.46875L21.4681 6.46487C21.4973 6.29 21.5441 6.09217 21.6397 5.93048C21.6865 5.85128 21.7448 5.78123 21.8176 5.72961C21.9624 5.62621 22.2442 5.6032 22.4547 5.56509C22.8388 5.49475 23.2503 5.42082 23.6639 5.3464C24.7153 5.15694 25.7928 4.96314 26.7879 4.76361C27.5424 4.61525 27.7849 4.44018 27.7446 4.25722H27.7438C27.706 4.08576 27.4015 3.93396 27.0479 3.79592C26.723 3.66924 26.4246 3.59934 26.0728 3.58578C25.7324 3.57247 25.3493 3.61291 24.8453 3.70475C23.6115 3.92944 22.3024 4.08536 21.0125 4.2389C20.6446 4.2826 20.2759 4.32663 19.9559 4.36625C19.5668 4.41398 19.294 4.49759 19.0915 4.62771C18.8935 4.75523 18.7727 4.92257 18.6827 5.14208L18.6797 5.15219C18.3581 6.48913 17.8648 7.32205 17.3594 8.17578C17.1277 8.56732 16.8924 8.96387 16.6695 9.41636V9.41677C16.6317 9.49374 16.5883 9.57335 16.55 9.64325V9.64366C16.3011 10.1015 16.2619 10.1754 17.1568 10.5229Z" fill="white"/>
<path d="M36.8106 9.50519C34.6987 9.82795 32.7395 10.1013 30.8702 10.3619L30.4837 10.4159L30.4766 10.4167C29.3344 10.5746 28.6052 10.3045 27.6586 9.95315L27.4791 9.8867L27.467 9.88192L27.433 9.86731C26.8527 9.6174 26.5721 9.49589 26.4809 9.31852C26.3959 9.15167 26.5002 8.98022 26.7027 8.64949L26.7738 8.53298C27.2796 7.69791 27.8581 6.96051 28.4515 6.20358C28.9388 5.58277 29.4372 4.94747 29.917 4.22775L29.9279 4.21419C30.138 3.94735 30.3878 3.76219 30.7016 3.67594C31.0338 3.585 31.418 3.6043 31.8763 3.75341C32.3412 3.90455 32.6602 4.09417 32.9998 4.29658L33.1154 4.36535L33.1199 4.36799C33.6126 4.66003 33.4732 4.82926 33.2518 5.09756C33.2159 5.14127 33.1762 5.18926 33.1339 5.24725C32.6814 5.86618 32.2532 6.44725 31.7818 7.04465C31.3134 7.63813 30.8053 8.24242 30.1931 8.90522L30.1912 8.90737L30.1218 8.97851L30.121 8.97941C29.8316 9.26818 30.0319 9.20236 30.5634 9.15701C31.52 9.0738 32.4607 8.96133 33.4032 8.84902C33.9503 8.78387 34.4986 8.71832 35.0399 8.6596L35.044 8.65917C35.3016 8.63167 35.5491 8.60651 35.7717 8.58698C36.004 8.56692 36.222 8.55098 36.4154 8.54194L36.4199 8.54179C37.1427 8.50736 37.4298 8.4938 37.5035 8.92994C37.5295 9.08285 37.5141 9.19941 37.4083 9.29594C37.3018 9.39338 37.1174 9.45876 36.8106 9.50519Z" fill="white"/>
<path fill-rule="evenodd" clip-rule="evenodd" d="M37.8201 8.82766C37.9973 8.50035 38.2141 8.09246 38.4245 7.69527C38.9171 6.76645 39.3894 5.87791 39.9738 4.89472L39.9769 4.88994C40.1129 4.6618 40.3358 4.48675 40.5806 4.35819C40.9138 4.18294 41.2954 4.09194 41.5598 4.06745C43.5742 3.88081 45.3881 3.76462 47.3741 3.6378L47.9374 3.60163C48.1233 3.58981 48.3099 3.59007 48.4833 3.6092C48.6677 3.62916 48.8381 3.67064 48.9801 3.74098L48.9869 3.74442C49.4859 4.01389 49.4524 4.20833 49.2113 4.3526C49.0145 4.4709 48.6714 4.53364 48.4138 4.58074L48.3885 4.58575L48.379 4.58723C47.5789 4.7102 46.7813 4.78053 45.9758 4.85084C45.6003 4.88353 45.2214 4.91707 44.8353 4.95625L44.8217 4.95732C44.3189 5.00998 43.8783 5.12112 43.5452 5.2842C43.2309 5.43748 43.0102 5.63835 42.9214 5.88069C42.8814 5.98905 42.8757 6.04844 42.9157 6.06719C42.9808 6.09765 43.1526 6.10414 43.4484 6.10006L43.615 6.09765C44.3578 6.08716 45.1538 6.07574 45.8769 6.13101C45.894 6.13234 45.9094 6.13489 45.9245 6.13834L45.9249 6.13808C46.1251 6.18581 46.2513 6.30887 46.2913 6.45099C46.3075 6.508 46.3102 6.56906 46.2989 6.62885V6.62925L46.2978 6.63378V6.63421C46.2861 6.69162 46.2603 6.751 46.2199 6.8054C46.1183 6.94408 45.9241 7.05652 45.6283 7.08365C45.3706 7.10689 45.079 7.10411 44.8149 7.1013C44.7201 7.10066 44.6261 7.09959 44.5443 7.09982C44.2179 7.10214 43.8647 7.11956 43.5251 7.1488C43.1971 7.17723 42.8829 7.21763 42.621 7.26644C42.3793 7.31162 42.2172 7.35738 42.0978 7.42129L42.097 7.42169L42.0933 7.42383C41.9742 7.48791 41.884 7.57697 41.7861 7.70777C41.6659 7.86835 41.539 8.07548 41.4253 8.29499C41.3146 8.50921 41.2157 8.73481 41.1473 8.9406L41.1435 8.95022C41.0688 9.09974 41.0762 9.14918 41.1156 9.15544C41.1817 9.16619 41.3109 9.15133 41.4329 9.13736C41.519 9.12742 41.6045 9.11756 41.6826 9.11452L42.1541 9.05241C43.799 8.8352 45.4813 8.61265 47.147 8.45995C47.5093 8.42659 47.8154 8.4716 48.0133 8.55802C48.1206 8.60445 48.1995 8.66424 48.2415 8.73112C48.2846 8.79972 48.2902 8.87481 48.2506 8.95022C48.1856 9.07305 47.9993 9.19865 47.6632 9.29716L47.6545 9.29954C47.4866 9.34834 47.4806 9.35005 47.3881 9.37216L47.2706 9.40074C46.1595 9.6738 45.0306 9.92052 43.8818 10.13C42.7341 10.3392 41.5656 10.5121 40.3747 10.6386L40.3705 10.639C39.8106 10.6979 39.3441 10.7209 38.9345 10.6663C38.5073 10.6089 38.1525 10.4706 37.8389 10.2084C37.6511 10.0517 37.5155 9.89925 37.4762 9.71003C37.4377 9.52446 37.4944 9.30701 37.689 9.02103L37.8201 8.82766Z" fill="white"/>
<path fill-rule="evenodd" clip-rule="evenodd" d="M51.0675 4.64414C51.4326 4.65811 51.7193 4.74027 51.9713 4.87335C52.2085 4.99896 52.4106 5.16844 52.6234 5.36879L52.6302 5.37546C52.9603 5.68773 53.2875 5.95757 53.6593 6.26359L53.7571 6.34427C53.8599 6.42898 53.9607 6.47498 54.0639 6.48295L54.0691 6.48344C54.1746 6.48985 54.3026 6.46034 54.4542 6.39626L54.461 6.39348L54.6589 6.30877C55.2694 6.04704 55.7957 5.7905 56.3174 5.53572C56.8861 5.25831 57.4528 4.98171 58.1354 4.69613C58.4674 4.55705 58.7833 4.50909 59.0901 4.5394L59.1006 4.54071C59.3961 4.57186 59.6715 4.67593 59.9351 4.8409C60.3316 5.08924 60.4944 5.25008 60.4335 5.42861C60.3761 5.59719 60.1181 5.74729 59.6673 5.98601C58.7958 6.4473 57.8898 6.90445 56.985 7.36123L56.1569 7.78035C55.9751 7.87237 55.8777 7.94978 55.8596 8.02528C55.8414 8.10077 55.8973 8.1885 56.0217 8.30071C56.7213 8.9332 57.4528 9.39343 58.1546 9.83507C58.5782 10.1016 58.9926 10.3622 59.3792 10.6456L59.5952 10.8052L59.6038 10.8123L59.7693 10.9374L59.7701 10.9379L59.8601 11.0028L59.863 11.0049C59.9813 11.0881 60.1282 11.1927 60.1913 11.2979C60.2794 11.4462 60.2295 11.5815 59.8535 11.6539C59.7554 11.6729 59.6353 11.6823 59.4962 11.674C59.3843 11.6673 59.2582 11.6483 59.1188 11.6137L59.1181 11.6135C58.9669 11.5756 58.7738 11.5038 58.5649 11.415L58.5529 11.4094C58.3518 11.3234 58.1354 11.2217 57.9261 11.1202L57.9178 11.1159C57.3012 10.8206 56.7266 10.52 56.1804 10.2114C55.6314 9.90086 55.1021 9.57769 54.5808 9.23988L54.5792 9.23881C54.3147 9.07081 54.1538 9.01085 54.0359 9.01644C53.9263 9.02177 53.7994 9.09619 53.6374 9.19403C53.2653 9.41881 52.892 9.64777 52.5198 9.87878L52.5103 9.88411C52.218 10.0656 51.8225 10.3136 51.4133 10.5697C50.9041 10.8886 50.8629 10.9146 50.4465 11.1791L50.4461 11.1793L50.4465 11.1796L50.4291 11.1905L50.4219 11.1949C50.3418 11.246 50.2583 11.3011 50.1798 11.3531C49.6048 11.7343 49.329 11.9167 48.4994 11.6202C48.0675 11.4655 47.8254 11.3146 47.7589 11.1333C47.6921 10.9529 47.8057 10.7583 48.083 10.5157C49.2179 9.52521 50.533 8.7035 51.9047 7.84658L52.0752 7.74013C52.1802 7.67455 52.2781 7.61302 52.2962 7.54656V7.54615C52.3162 7.47434 52.2622 7.37479 52.0696 7.2191C51.8594 7.04921 51.6528 6.89132 51.4507 6.73671C51.0007 6.39241 50.5666 6.0602 50.2093 5.69544C49.8742 5.35294 49.7556 5.08816 49.8833 4.90538L49.8836 4.90497C50.0225 4.70691 50.4075 4.61785 51.0675 4.64414Z" fill="white"/>
<path fill-rule="evenodd" clip-rule="evenodd" d="M16.873 32.8674L28.735 26.1208H41.9756L51.4813 31.5315V29.706H56.2596V34.2514L69.64 41.8677H61.4369L42.002 30.8198L22.4629 41.9414C20.4599 40.2321 17.6218 36.678 16.873 32.8674Z" fill="white"/>
<path fill-rule="evenodd" clip-rule="evenodd" d="M45.9668 39.0371C44.8931 39.0371 43.8882 39.0371 42.8086 39.0371C42.8086 38.3902 42.8086 37.7574 42.8086 37.091C43.8566 37.091 44.8821 37.091 45.9665 37.091C45.9668 37.7303 45.9665 38.3518 45.9668 39.0371Z" fill="white"/>
<path fill-rule="evenodd" clip-rule="evenodd" d="M41.1425 39.0371C40.0689 39.0371 39.064 39.0371 37.9844 39.0371C37.9844 38.3902 37.9844 37.7574 37.9844 37.091C39.0324 37.091 40.0579 37.091 41.1424 37.091C41.1425 37.7303 41.1424 38.3517 41.1425 39.0371Z" fill="white"/>
<path fill-rule="evenodd" clip-rule="evenodd" d="M45.9668 41.9121C44.8931 41.9121 43.8882 41.9121 42.8086 41.9121C42.8086 41.2652 42.8086 40.6323 42.8086 39.9659C43.8566 39.9659 44.8821 39.9659 45.9665 39.9659C45.9668 40.6053 45.9665 41.2268 45.9668 41.9121Z" fill="white"/>
<path fill-rule="evenodd" clip-rule="evenodd" d="M41.1425 41.9121C40.0689 41.9121 39.064 41.9121 37.9844 41.9121C37.9844 41.2652 37.9844 40.6324 37.9844 39.966C39.0324 39.966 40.0579 39.966 41.1424 39.966C41.1425 40.6053 41.1424 41.2268 41.1425 41.9121Z" fill="white"/>
</g>
</svg>
